<svg width="28" height="28" viewBox="0 0 28 28" fill="none" xmlns="http://www.w3.org/2000/svg">
<path fill-rule="evenodd" clip-rule="evenodd" d="M23.3333 8.16667H18.6666C18.6666 5.58833 16.5783 3.5 13.9999 3.5C11.4216 3.5 9.33325 5.58833 9.33325 8.16667H4.66659C3.38325 8.16667 2.33325 9.21667 2.33325 10.5V14C2.33325 15.295 3.37159 16.3333 4.66659 16.3333H11.6666V15.1667C11.6666 14.525 12.1916 14 12.8333 14H15.1666C15.8083 14 16.3333 14.525 16.3333 15.1667V16.3333H23.3333C24.6166 16.3333 25.6666 15.2833 25.6666 14V10.5C25.6666 9.21667 24.6166 8.16667 23.3333 8.16667ZM12.8333 18.6667C12.1916 18.6667 11.6666 18.1417 11.6666 17.5H3.51159V22.1667C3.51159 23.45 4.56159 24.5 5.84492 24.5H22.1666C23.4499 24.5 24.4999 23.45 24.4999 22.1667V17.5H16.3333C16.3333 18.1417 15.8083 18.6667 15.1666 18.6667H12.8333ZM13.9999 5.83333C12.7166 5.83333 11.6666 6.88333 11.6666 8.16667H16.3333C16.3333 6.88333 15.2832 5.83333 13.9999 5.83333Z" fill="#FFFFFE" />
</svg>
