<svg width="21" height="18" viewBox="0 0 21 18" fill="none" xmlns="http://www.w3.org/2000/svg">
<path fill-rule="evenodd" clip-rule="evenodd" d="M12.7235 2.4675L13.2865 3H15.2689C15.705 3 16.0618 3.3375 16.0618 3.75C16.0618 4.1625 15.705 4.5 15.2689 4.5H5.75352C5.3174 4.5 4.96057 4.1625 4.96057 3.75C4.96057 3.3375 5.3174 3 5.75352 3H7.73588L8.29887 2.4675C8.4416 2.3325 8.64777 2.25 8.85394 2.25H12.1685C12.3746 2.25 12.5808 2.3325 12.7235 2.4675ZM5.75352 14.25C5.75352 15.075 6.46717 15.75 7.33941 15.75H13.683C14.5552 15.75 15.2689 15.075 15.2689 14.25V6.75C15.2689 5.925 14.5552 5.25 13.683 5.25H7.33941C6.46717 5.25 5.75352 5.925 5.75352 6.75V14.25ZM8.13235 6.75H12.89C13.3261 6.75 13.683 7.0875 13.683 7.5V13.5C13.683 13.9125 13.3261 14.25 12.89 14.25H8.13235C7.69623 14.25 7.33941 13.9125 7.33941 13.5V7.5C7.33941 7.0875 7.69623 6.75 8.13235 6.75Z" fill="#888888"/>
</svg>
