<svg width="28" height="28" viewBox="0 0 28 28" fill="none" xmlns="http://www.w3.org/2000/svg">
<path fill-rule="evenodd" clip-rule="evenodd" d="M17.1384 2.24672C18.1884 3.25006 19.1217 4.37006 19.9384 5.57172C22.0734 8.73339 23.3334 12.5134 23.3334 16.5851C23.3334 21.7417 19.1567 25.9184 14.0001 25.9184C8.84341 25.9184 4.66675 21.7417 4.66675 16.5851C4.66675 13.6217 5.46008 10.8451 6.84841 8.46506C7.03508 8.12672 7.23341 7.81172 7.44341 7.49672C7.72341 7.06506 8.36508 7.21672 8.49341 7.70672C8.56341 7.96339 8.61008 8.10339 8.72675 8.33672C9.36841 9.88839 10.8384 10.9734 12.6351 10.9734C15.0384 10.9734 16.6134 9.02506 16.6134 6.62172C16.6134 5.32672 16.3801 3.88006 16.1584 2.78339C16.0417 2.22339 16.7301 1.85006 17.1384 2.24672ZM9.90508 18.7551C9.90508 20.7851 11.5851 22.4184 13.6617 22.4184C16.7534 22.4184 19.2617 19.9101 19.2501 16.8184C19.2501 15.5701 19.1101 14.3334 18.8417 13.1434C18.7484 12.7117 18.2117 12.5717 17.8851 12.8751C16.6601 14.0301 14.8984 14.7651 13.1834 15.1151C11.1301 15.5351 9.90508 16.8651 9.90508 18.7551Z" fill="#FFFFFE" />
</svg>
