<svg width="28" height="28" viewBox="0 0 28 28" fill="none" xmlns="http://www.w3.org/2000/svg">
<path fill-rule="evenodd" clip-rule="evenodd" d="M21.0001 2.34498L7.00008 2.33331C5.71675 2.33331 4.66675 3.37165 4.66675 4.66665V23.3333C4.66675 24.6166 5.71675 25.6666 7.00008 25.6666H21.0001C22.2834 25.6666 23.3334 24.6166 23.3334 23.3333V4.66665C23.3334 3.37165 22.2834 2.34498 21.0001 2.34498ZM19.8334 23.3333H8.16675C7.52508 23.3333 7.00008 22.8083 7.00008 22.1666V13.9766C7.00008 13.335 7.52508 12.81 8.16675 12.81H19.8334C20.4751 12.81 21.0001 13.335 21.0001 13.9766V22.1666C21.0001 22.8083 20.4751 23.3333 19.8334 23.3333ZM8.16675 10.5H19.8334C20.4751 10.5 21.0001 9.97498 21.0001 9.33331V5.83331C21.0001 5.19165 20.4751 4.66665 19.8334 4.66665H8.16675C7.52508 4.66665 7.00008 5.19165 7.00008 5.83331V9.33331C7.00008 9.97498 7.52508 10.5 8.16675 10.5ZM10.5001 5.83331C11.1417 5.83331 11.6667 6.35831 11.6667 6.99998V8.16665C11.6667 8.80831 11.1417 9.33331 10.5001 9.33331C9.85841 9.33331 9.33342 8.80831 9.33342 8.16665V6.99998C9.33342 6.35831 9.85841 5.83331 10.5001 5.83331ZM11.6667 15.1666C11.6667 14.525 11.1417 14 10.5001 14C9.85841 14 9.33342 14.525 9.33342 15.1666V18.6666C9.33342 19.3083 9.85841 19.8333 10.5001 19.8333C11.1417 19.8333 11.6667 19.3083 11.6667 18.6666V15.1666Z" fill="#FFFFFE" />
</svg>
