<svg width="20" height="18" viewBox="0 0 20 18" fill="none" xmlns="http://www.w3.org/2000/svg">
<path fill-rule="evenodd" clip-rule="evenodd" d="M2.2605 9C2.2605 4.86 5.80496 1.5 10.182 1.5C14.567 1.5 18.1194 4.86 18.1194 9C18.1194 13.14 14.567 16.5 10.182 16.5C5.80496 16.5 2.2605 13.14 2.2605 9ZM10.9829 6C10.9829 5.5875 10.6261 5.25 10.1899 5.25C9.75381 5.25 9.39699 5.5875 9.39699 6V9C9.39699 9.4125 9.75381 9.75 10.1899 9.75C10.6261 9.75 10.9829 9.4125 10.9829 9V6ZM10.1899 15C6.68512 15 3.84639 12.315 3.84639 9C3.84639 5.685 6.68512 3 10.1899 3C13.6947 3 16.5335 5.685 16.5335 9C16.5335 12.315 13.6947 15 10.1899 15ZM9.39699 11.25V12.75H10.9829V11.25H9.39699Z" fill="#888888"/>
</svg>
