<svg width="28" height="28" viewBox="0 0 28 28" fill="none" xmlns="http://www.w3.org/2000/svg">
<path fill-rule="evenodd" clip-rule="evenodd" d="M3.20825 7C3.20825 6.03167 3.98992 5.25 4.95825 5.25C5.92659 5.25 6.70825 6.03167 6.70825 7C6.70825 7.96833 5.92659 8.75 4.95825 8.75C3.98992 8.75 3.20825 7.96833 3.20825 7ZM3.20825 14C3.20825 13.0317 3.98992 12.25 4.95825 12.25C5.92659 12.25 6.70825 13.0317 6.70825 14C6.70825 14.9683 5.92659 15.75 4.95825 15.75C3.98992 15.75 3.20825 14.9683 3.20825 14ZM4.95825 19.25C3.98992 19.25 3.20825 20.0433 3.20825 21C3.20825 21.9567 4.00159 22.75 4.95825 22.75C5.91492 22.75 6.70825 21.9567 6.70825 21C6.70825 20.0433 5.92659 19.25 4.95825 19.25ZM23.6249 22.1667H9.62492C8.98325 22.1667 8.45825 21.6417 8.45825 21C8.45825 20.3583 8.98325 19.8333 9.62492 19.8333H23.6249C24.2666 19.8333 24.7916 20.3583 24.7916 21C24.7916 21.6417 24.2666 22.1667 23.6249 22.1667ZM9.62492 15.1667H23.6249C24.2666 15.1667 24.7916 14.6417 24.7916 14C24.7916 13.3583 24.2666 12.8333 23.6249 12.8333H9.62492C8.98325 12.8333 8.45825 13.3583 8.45825 14C8.45825 14.6417 8.98325 15.1667 9.62492 15.1667ZM9.62492 8.16667C8.98325 8.16667 8.45825 7.64167 8.45825 7C8.45825 6.35833 8.98325 5.83333 9.62492 5.83333H23.6249C24.2666 5.83333 24.7916 6.35833 24.7916 7C24.7916 7.64167 24.2666 8.16667 23.6249 8.16667H9.62492Z" fill="#FFFFFE"/>
</svg>
