<svg width="28" height="28" viewBox="0 0 28 28" fill="none" xmlns="http://www.w3.org/2000/svg">
<path fill-rule="evenodd" clip-rule="evenodd" d="M23.3272 11.9642L15.4405 18.1008C14.6005 18.7658 13.4105 18.7658 12.5705 18.1125L4.68382 11.9758C4.08882 11.5092 4.08882 10.5992 4.68382 10.1325L12.5705 3.98417C13.4222 3.33084 14.6005 3.33084 15.4405 3.98417L23.3272 10.1208C23.9222 10.5875 23.9222 11.4975 23.3272 11.9642ZM13.2709 21.6242C13.6909 21.9508 14.2859 21.9508 14.7059 21.6242L21.8809 16.0358C22.2991 15.7092 22.886 15.7092 23.3042 16.0358L23.3159 16.0475C23.9109 16.5142 23.9109 17.4125 23.3159 17.8792L15.4292 24.0158C14.5776 24.6692 13.3992 24.6692 12.5592 24.0158L4.67257 17.8792C4.07757 17.4125 4.07757 16.5142 4.67257 16.0475C5.09079 15.7209 5.67768 15.7209 6.0959 16.0475L13.2709 21.6242Z" fill="#FFFFFE" />
</svg>
