<svg width="22" height="22" viewBox="0 0 22 20" fill="none" xmlns="http://www.w3.org/2000/svg">
<path fill-rule="evenodd" clip-rule="evenodd" d="M13.3249 7.39549L17.5892 7.74549C18.3645 7.80382 18.6729 8.72049 18.0826 9.20382L14.8491 11.8538L15.8183 15.7955C15.9945 16.5122 15.1751 17.0788 14.5055 16.6955L10.8492 14.6038L7.19281 16.6872C6.52321 17.0705 5.70383 16.5038 5.88004 15.7872L6.8492 11.8538L3.61575 9.20382C3.02544 8.72049 3.34262 7.80382 4.11794 7.74549L8.37342 7.40382L10.0386 3.68716C10.3382 3.01216 11.3602 3.01216 11.6597 3.68716L13.3249 7.39549ZM7.53642 14.9372L10.8492 13.0455L14.1707 14.9455L13.2897 11.3788L16.2148 8.97883L12.3558 8.66216L10.8492 5.2955L9.35138 8.65383L5.49238 8.97049L8.41747 11.3705L7.53642 14.9372Z" fill="#888888"/>
</svg>
