<svg width="28" height="28" viewBox="0 0 28 28" fill="none" xmlns="http://www.w3.org/2000/svg">
<path fill-rule="evenodd" clip-rule="evenodd" d="M17.2766 10.3537L22.9233 10.8437C23.9499 10.9253 24.3583 12.2087 23.5766 12.8853L19.2949 16.5953L20.5783 22.1137C20.8116 23.117 19.7266 23.9103 18.8399 23.3737L13.9983 20.4453L9.15659 23.362C8.26992 23.8987 7.18492 23.1053 7.41825 22.102L8.70159 16.5953L4.41992 12.8853C3.63825 12.2087 4.05825 10.9253 5.08492 10.8437L10.7199 10.3653L12.9249 5.162C13.3216 4.217 14.6749 4.217 15.0716 5.162L17.2766 10.3537ZM9.61158 20.912L13.9982 18.2637L18.3966 20.9237L17.2299 15.9303L21.1032 12.5703L15.9932 12.127L13.9982 7.41367L12.0149 12.1153L6.90491 12.5587L10.7782 15.9187L9.61158 20.912Z" fill="#FFFFFE" />
</svg>
